<svg viewBox="0 0 799 403" fill="none">
  <path d="M798.698 315.145C798.444 344.199 786.618 372.075 766.125 392.52L763.968 394.653C761.727 396.869 760.296 399.623 759.678 402.525L37.729 402.525C38.715 397.569 37.3411 392.209 33.5907 388.367L31.4713 386.196C11.3385 365.392 0.0010477 337.311 0.254906 308.257C0.786121 247.458 50.2161 198.751 110.442 199.284L119.173 199.361C140.555 199.551 161.353 205.474 179.608 216.756L235.085 250.967C238.275 252.968 240.768 253.17 242.553 252.827C244.695 252.487 246.844 251.251 248.999 249.297C251.155 247.343 252.244 245.021 252.619 242.872C252.993 240.902 252.835 238.569 250.903 235.323L217.895 178.891C207.187 160.322 201.491 139.287 201.679 117.765L201.756 108.977C202.287 48.1785 251.539 -0.530335 311.943 0.00436032C340.809 0.259876 368.503 12.1635 388.816 32.7904L390.935 34.9615C396.94 41.1129 406.919 41.2012 413.03 35.1571L415.187 33.0238C435.857 12.7597 463.755 1.34818 492.621 1.60371C553.026 2.13839 601.419 51.7116 600.709 112.509L600.634 121.117C600.446 142.639 594.561 163.572 583.352 181.947L549.363 237.786C547.375 240.997 547.174 243.506 547.515 245.303C547.853 247.458 549.081 249.621 551.022 251.791C552.964 253.96 555.271 255.057 557.406 255.434C559.363 255.811 561.681 255.652 564.905 253.707L620.971 220.484C639.42 209.706 660.319 203.972 681.701 204.161L690.432 204.239C750.836 204.773 799.229 254.347 798.698 315.145Z" fill="#048728"/>
  <path d="M719.514 333.767C719.31 356.63 709.829 378.564 693.401 394.652L691.672 396.331C689.876 398.075 688.728 400.241 688.233 402.525L109.481 402.525C110.271 398.626 109.17 394.408 106.163 391.385L104.464 389.676C88.3245 373.305 79.2358 351.209 79.4393 328.347C79.8652 280.505 119.491 242.178 167.771 242.598L174.771 242.659C191.911 242.808 208.584 247.469 223.219 256.346L267.692 283.266C270.249 284.841 272.248 285 273.679 284.73C275.395 284.462 277.118 283.489 278.846 281.952C280.574 280.414 281.447 278.587 281.748 276.896C282.048 275.346 281.921 273.51 280.372 270.957L253.911 226.551C245.327 211.939 240.761 195.387 240.911 178.452L240.973 171.537C241.399 123.695 280.882 85.3668 329.305 85.7875C352.445 85.9886 374.647 95.3553 390.93 111.586L392.629 113.295C397.443 118.135 405.442 118.205 410.342 113.449L412.071 111.77C428.641 95.8245 451.006 86.845 474.146 87.046C522.569 87.4668 561.364 126.475 560.795 174.315L560.735 181.089C560.584 198.025 555.866 214.496 546.881 228.955L519.633 272.894C518.039 275.421 517.879 277.395 518.152 278.809C518.423 280.505 519.408 282.207 520.964 283.915C522.52 285.622 524.369 286.485 526.081 286.782C527.65 287.078 529.508 286.953 532.093 285.423L577.038 259.28C591.828 250.799 608.582 246.287 625.723 246.436L632.722 246.497C681.145 246.917 719.94 285.926 719.514 333.767Z" fill="#05AB33"/>
  <path d="M627.132 352.389C626.987 369.06 620.243 385.054 608.557 396.785L607.327 398.009C606.049 399.28 605.233 400.86 604.881 402.525L193.191 402.525C193.753 399.682 192.97 396.606 190.831 394.402L189.622 393.156C178.142 381.219 171.676 365.107 171.821 348.437C172.124 313.552 200.311 285.606 234.655 285.911L239.634 285.956C251.827 286.064 263.687 289.463 274.097 295.937L305.733 315.566C307.552 316.714 308.974 316.829 309.991 316.633C311.213 316.438 312.438 315.728 313.667 314.607C314.896 313.486 315.518 312.154 315.732 310.921C315.945 309.791 315.855 308.452 314.753 306.59L295.93 274.211C289.824 263.556 286.576 251.487 286.683 239.138L286.727 234.096C287.03 199.212 315.115 171.264 349.561 171.571C366.021 171.717 381.814 178.547 393.397 190.382L394.606 191.628C398.03 195.158 403.72 195.208 407.206 191.74L408.436 190.516C420.222 178.889 436.132 172.342 452.592 172.488C487.038 172.795 514.634 201.239 514.229 236.122L514.186 241.062C514.079 253.41 510.723 265.421 504.331 275.964L484.949 308.003C483.815 309.845 483.701 311.285 483.895 312.316C484.088 313.552 484.788 314.793 485.895 316.038C487.002 317.283 488.318 317.912 489.535 318.129C490.651 318.345 491.973 318.254 493.812 317.138L525.783 298.075C536.304 291.891 548.221 288.601 560.415 288.71L565.393 288.754C599.839 289.061 627.435 317.505 627.132 352.389Z" fill="#06CE3D"/>
</svg>
